<?xml version="1.0" encoding="utf-8"?>
<!-- Generator: Adobe Illustrator 16.0.0, SVG Export Plug-In . SVG Version: 6.00 Build 0)  -->
<!DOCTYPE svg PUBLIC "-//W3C//DTD SVG 1.1//EN" "http://www.w3.org/Graphics/SVG/1.1/DTD/svg11.dtd">
<svg version="1.1" id="레이어_1" xmlns="http://www.w3.org/2000/svg" xmlns:xlink="http://www.w3.org/1999/xlink" x="0px"
	 y="0px" width="188.754px" height="184.043px" viewBox="0 0 188.754 184.043" enable-background="new 0 0 188.754 184.043"
	 xml:space="preserve">
<path fill="#FFFFFF" d="M64.444,4.257c-0.418,0.131-0.835,0.258-1.252,0.396C14.941,20.577-11.264,72.601,4.66,120.851
	c1.875,5.682,4.256,11.053,7.066,16.09c21.062,37.743,66.562,56.492,109.131,42.443c0.417-0.138,0.828-0.284,1.241-0.428
	l-6.239-18.906c-0.414,0.145-0.818,0.305-1.236,0.442c-33.254,10.975-68.787-3.591-85.365-32.978
	c-2.274-4.031-4.201-8.336-5.706-12.898C11.07,76.799,31.61,36.025,69.427,23.545c0.418-0.138,0.838-0.25,1.257-0.38
	c33.901-10.519,69.893,5.251,85.573,36.069l17.525-9.422C153.619,10.637,107.662-9.338,64.444,4.257z"/>
<rect x="99.42" y="105.209" fill="#FFFFFF" width="89.334" height="4"/>
<text transform="matrix(1 0 0 1 131.4692 150.9873)" fill="#F7F8F8" font-family="'AdobeMyungjoStd-Medium-KSCpc-EUC-H'" font-size="40.5342">A</text>
<text transform="matrix(1 0 0 1 109.1597 92.0469)" fill="#F7F8F8" font-family="'AdobeMyungjoStd-Medium-KSCpc-EUC-H'" font-size="28.861">29.5</text>
</svg>
