<?xml version="1.0" encoding="utf-8"?>
<!-- Generator: Adobe Illustrator 16.0.0, SVG Export Plug-In . SVG Version: 6.00 Build 0)  -->
<!DOCTYPE svg PUBLIC "-//W3C//DTD SVG 1.1//EN" "http://www.w3.org/Graphics/SVG/1.1/DTD/svg11.dtd">
<svg version="1.1" id="Layer_1" xmlns="http://www.w3.org/2000/svg" xmlns:xlink="http://www.w3.org/1999/xlink" x="0px" y="0px"
	 width="262.5px" height="111.5px" viewBox="0 0 262.5 111.5" enable-background="new 0 0 262.5 111.5" xml:space="preserve">
<path fill="none" stroke="#5D6C81" stroke-width="2" stroke-miterlimit="10" d="M23.999,26.732h195.846
	c15.188,0,27.5,12.313,27.5,27.5l0,0c0,15.188-12.313,27.5-27.5,27.5h-56.679"/>
<circle fill="#91923A" cx="209.783" cy="81.732" r="9.211"/>
<polygon fill="#8C98A8" points="52.188,7.492 44.125,7.492 39.188,7.492 44.125,16.433 48.156,23.732 52.188,16.433 57.125,7.492 
	"/>
<polygon fill="#8C98A8" points="178.188,100.973 186.25,100.973 191.188,100.973 186.25,92.032 182.219,84.732 178.188,92.032 
	173.25,100.973 "/>
<g>
	<text transform="matrix(1 0 0 1 62.75 17.8252)" fill="#FFFFFF" font-family="'MyriadPro-Regular'" font-size="15.663">STOP</text>
</g>
<g>
	<text transform="matrix(1 0 0 1 126.75 102.9492)" fill="#FFFFFF" font-family="'MyriadPro-Regular'" font-size="15.663">START</text>
</g>
</svg>
